<?xml version="1.0" encoding="UTF-8" standalone="no"?><svg xmlns="http://www.w3.org/2000/svg" xmlns:xlink="http://www.w3.org/1999/xlink" contentStyleType="text/css" height="1397px" preserveAspectRatio="none" style="width:883px;height:1397px;background:#FFFFFF;" version="1.1" viewBox="0 0 883 1397" width="883px" zoomAndPan="magnify"><defs/><g><rect fill="#FFFFFF" height="1282.3828" style="stroke:#181818;stroke-width:1.0;" width="10" x="108" y="69.9609"/><rect fill="#FFFFFF" height="30" style="stroke:#181818;stroke-width:1.0;" width="10" x="222.5" y="1260.1563"/><rect fill="#FFFFFF" height="30.3516" style="stroke:#181818;stroke-width:1.0;" width="10" x="358" y="125.6641"/><rect fill="#FFFFFF" height="30.3516" style="stroke:#181818;stroke-width:1.0;" width="10" x="445" y="186.3672"/><rect fill="#FFFFFF" height="217.4609" style="stroke:#181818;stroke-width:1.0;" width="10" x="445" y="247.0703"/><rect fill="#FFFFFF" height="558.3281" style="stroke:#181818;stroke-width:1.0;" width="10" x="445" y="510.7188"/><rect fill="#FFFFFF" height="230.8125" style="stroke:#181818;stroke-width:1.0;" width="10" x="450" y="749.1797"/><rect fill="#FFFFFF" height="30.3516" style="stroke:#181818;stroke-width:1.0;" width="10" x="445" y="1199.4531"/><rect fill="#FFFFFF" height="156.7578" style="stroke:#181818;stroke-width:1.0;" width="10" x="604" y="277.4219"/><rect fill="#FFFFFF" height="126.4063" style="stroke:#181818;stroke-width:1.0;" width="10" x="604" y="584.4219"/><rect fill="#FFFFFF" height="195.4609" style="stroke:#181818;stroke-width:1.0;" width="10" x="604" y="784.5313"/><rect fill="#FFFFFF" height="41.5273" style="stroke:#181818;stroke-width:1.0;" width="10" x="754" y="362.3008"/><rect fill="#FFFFFF" height="60.8789" style="stroke:#181818;stroke-width:1.0;" width="10" x="754" y="869.4102"/><rect fill="none" height="999.0859" style="stroke:#000000;stroke-width:1.5;" width="814" x="62" y="84.9609"/><rect fill="none" height="155.2422" style="stroke:#000000;stroke-width:1.5;" width="424" x="62" y="1158.75"/><line style="stroke:#181818;stroke-width:0.5;stroke-dasharray:5.0,5.0;" x1="113" x2="113" y1="37.6094" y2="1361.3438"/><line style="stroke:#181818;stroke-width:0.5;stroke-dasharray:5.0,5.0;" x1="227" x2="227" y1="37.6094" y2="1361.3438"/><line style="stroke:#181818;stroke-width:0.5;stroke-dasharray:5.0,5.0;" x1="363" x2="363" y1="37.6094" y2="1361.3438"/><line style="stroke:#181818;stroke-width:0.5;stroke-dasharray:5.0,5.0;" x1="450" x2="450" y1="37.6094" y2="1361.3438"/><line style="stroke:#181818;stroke-width:0.5;stroke-dasharray:5.0,5.0;" x1="608.5" x2="608.5" y1="37.6094" y2="1361.3438"/><line style="stroke:#181818;stroke-width:0.5;stroke-dasharray:5.0,5.0;" x1="759" x2="759" y1="37.6094" y2="1361.3438"/><rect fill="#E2E2F0" height="31.6094" rx="2.5" ry="2.5" style="stroke:#181818;stroke-width:0.5;" width="82" x="72" y="5"/><text fill="#000000" font-family="sans-serif" font-size="14" lengthAdjust="spacing" textLength="68" x="79" y="26.5332">GameMain</text><rect fill="#E2E2F0" height="31.6094" rx="2.5" ry="2.5" style="stroke:#181818;stroke-width:0.5;" width="82" x="72" y="1360.3438"/><text fill="#000000" font-family="sans-serif" font-size="14" lengthAdjust="spacing" textLength="68" x="79" y="1381.877">GameMain</text><rect fill="#E2E2F0" height="31.6094" rx="2.5" ry="2.5" style="stroke:#181818;stroke-width:0.5;" width="127" x="164" y="5"/><text fill="#000000" font-family="sans-serif" font-size="14" lengthAdjust="spacing" textLength="113" x="171" y="26.5332">OnClickResponse</text><rect fill="#E2E2F0" height="31.6094" rx="2.5" ry="2.5" style="stroke:#181818;stroke-width:0.5;" width="127" x="164" y="1360.3438"/><text fill="#000000" font-family="sans-serif" font-size="14" lengthAdjust="spacing" textLength="113" x="171" y="1381.877">OnClickResponse</text><rect fill="#E2E2F0" height="31.6094" rx="2.5" ry="2.5" style="stroke:#181818;stroke-width:0.5;" width="102" x="312" y="5"/><text fill="#000000" font-family="sans-serif" font-size="14" lengthAdjust="spacing" textLength="88" x="319" y="26.5332">BoardAdapter</text><rect fill="#E2E2F0" height="31.6094" rx="2.5" ry="2.5" style="stroke:#181818;stroke-width:0.5;" width="102" x="312" y="1360.3438"/><text fill="#000000" font-family="sans-serif" font-size="14" lengthAdjust="spacing" textLength="88" x="319" y="1381.877">BoardAdapter</text><rect fill="#E2E2F0" height="31.6094" rx="2.5" ry="2.5" style="stroke:#181818;stroke-width:0.5;" width="52" x="424" y="5"/><text fill="#000000" font-family="sans-serif" font-size="14" lengthAdjust="spacing" textLength="38" x="431" y="26.5332">Board</text><rect fill="#E2E2F0" height="31.6094" rx="2.5" ry="2.5" style="stroke:#181818;stroke-width:0.5;" width="52" x="424" y="1360.3438"/><text fill="#000000" font-family="sans-serif" font-size="14" lengthAdjust="spacing" textLength="38" x="431" y="1381.877">Board</text><rect fill="#E2E2F0" height="31.6094" rx="2.5" ry="2.5" style="stroke:#181818;stroke-width:0.5;" width="81" x="568.5" y="5"/><text fill="#000000" font-family="sans-serif" font-size="14" lengthAdjust="spacing" textLength="67" x="575.5" y="26.5332">BasePiece</text><rect fill="#E2E2F0" height="31.6094" rx="2.5" ry="2.5" style="stroke:#181818;stroke-width:0.5;" width="81" x="568.5" y="1360.3438"/><text fill="#000000" font-family="sans-serif" font-size="14" lengthAdjust="spacing" textLength="67" x="575.5" y="1381.877">BasePiece</text><rect fill="#E2E2F0" height="31.6094" rx="2.5" ry="2.5" style="stroke:#181818;stroke-width:0.5;" width="98" x="710" y="5"/><text fill="#000000" font-family="sans-serif" font-size="14" lengthAdjust="spacing" textLength="84" x="717" y="26.5332">MovementUtil</text><rect fill="#E2E2F0" height="31.6094" rx="2.5" ry="2.5" style="stroke:#181818;stroke-width:0.5;" width="98" x="710" y="1360.3438"/><text fill="#000000" font-family="sans-serif" font-size="14" lengthAdjust="spacing" textLength="84" x="717" y="1381.877">MovementUtil</text><rect fill="#FFFFFF" height="1282.3828" style="stroke:#181818;stroke-width:1.0;" width="10" x="108" y="69.9609"/><rect fill="#FFFFFF" height="30" style="stroke:#181818;stroke-width:1.0;" width="10" x="222.5" y="1260.1563"/><rect fill="#FFFFFF" height="30.3516" style="stroke:#181818;stroke-width:1.0;" width="10" x="358" y="125.6641"/><rect fill="#FFFFFF" height="30.3516" style="stroke:#181818;stroke-width:1.0;" width="10" x="445" y="186.3672"/><rect fill="#FFFFFF" height="217.4609" style="stroke:#181818;stroke-width:1.0;" width="10" x="445" y="247.0703"/><rect fill="#FFFFFF" height="558.3281" style="stroke:#181818;stroke-width:1.0;" width="10" x="445" y="510.7188"/><rect fill="#FFFFFF" height="230.8125" style="stroke:#181818;stroke-width:1.0;" width="10" x="450" y="749.1797"/><rect fill="#FFFFFF" height="30.3516" style="stroke:#181818;stroke-width:1.0;" width="10" x="445" y="1199.4531"/><rect fill="#FFFFFF" height="156.7578" style="stroke:#181818;stroke-width:1.0;" width="10" x="604" y="277.4219"/><rect fill="#FFFFFF" height="126.4063" style="stroke:#181818;stroke-width:1.0;" width="10" x="604" y="584.4219"/><rect fill="#FFFFFF" height="195.4609" style="stroke:#181818;stroke-width:1.0;" width="10" x="604" y="784.5313"/><rect fill="#FFFFFF" height="41.5273" style="stroke:#181818;stroke-width:1.0;" width="10" x="754" y="362.3008"/><rect fill="#FFFFFF" height="60.8789" style="stroke:#181818;stroke-width:1.0;" width="10" x="754" y="869.4102"/><polygon fill="#181818" points="96,65.9609,106,69.9609,96,73.9609,100,69.9609" style="stroke:#181818;stroke-width:1.0;"/><line style="stroke:#181818;stroke-width:1.0;" x1="0" x2="102" y1="69.9609" y2="69.9609"/><text fill="#000000" font-family="sans-serif" font-size="13" lengthAdjust="spacing" textLength="46" x="7" y="65.1045">OnClick</text><path d="M62,84.9609 L123,84.9609 L123,93.3125 L113,103.3125 L62,103.3125 L62,84.9609 " fill="#EEEEEE" style="stroke:#000000;stroke-width:1.5;"/><rect fill="none" height="999.0859" style="stroke:#000000;stroke-width:1.5;" width="814" x="62" y="84.9609"/><text fill="#000000" font-family="sans-serif" font-size="13" font-weight="bold" lengthAdjust="spacing" textLength="16" x="77" y="99.4561">alt</text><text fill="#000000" font-family="sans-serif" font-size="11" font-weight="bold" lengthAdjust="spacing" textLength="59" x="138" y="98.3799">[first click]</text><polygon fill="#181818" points="346,121.6641,356,125.6641,346,129.6641,350,125.6641" style="stroke:#181818;stroke-width:1.0;"/><line style="stroke:#181818;stroke-width:1.0;" x1="118" x2="352" y1="125.6641" y2="125.6641"/><text fill="#000000" font-family="sans-serif" font-size="13" lengthAdjust="spacing" textLength="111" x="125" y="120.8076">calculatePolygonID</text><polygon fill="#181818" points="129,152.0156,119,156.0156,129,160.0156,125,156.0156" style="stroke:#181818;stroke-width:1.0;"/><line style="stroke:#181818;stroke-width:1.0;stroke-dasharray:2.0,2.0;" x1="123" x2="362" y1="156.0156" y2="156.0156"/><text fill="#000000" font-family="sans-serif" font-size="13" lengthAdjust="spacing" textLength="94" x="135" y="151.1592">polygon position</text><polygon fill="#181818" points="433,182.3672,443,186.3672,433,190.3672,437,186.3672" style="stroke:#181818;stroke-width:1.0;"/><line style="stroke:#181818;stroke-width:1.0;" x1="118" x2="439" y1="186.3672" y2="186.3672"/><text fill="#000000" font-family="sans-serif" font-size="13" lengthAdjust="spacing" textLength="129" x="125" y="181.5107">isCurrentPlayersPiece</text><polygon fill="#181818" points="129,212.7188,119,216.7188,129,220.7188,125,216.7188" style="stroke:#181818;stroke-width:1.0;"/><line style="stroke:#181818;stroke-width:1.0;stroke-dasharray:2.0,2.0;" x1="123" x2="449" y1="216.7188" y2="216.7188"/><text fill="#000000" font-family="sans-serif" font-size="13" lengthAdjust="spacing" textLength="94" x="135" y="211.8623">return true/ false</text><polygon fill="#181818" points="433,243.0703,443,247.0703,433,251.0703,437,247.0703" style="stroke:#181818;stroke-width:1.0;"/><line style="stroke:#181818;stroke-width:1.0;" x1="118" x2="439" y1="247.0703" y2="247.0703"/><text fill="#000000" font-family="sans-serif" font-size="13" lengthAdjust="spacing" textLength="105" x="125" y="242.2139">getPossibleMoves</text><polygon fill="#181818" points="592,273.4219,602,277.4219,592,281.4219,596,277.4219" style="stroke:#181818;stroke-width:1.0;"/><line style="stroke:#181818;stroke-width:1.0;" x1="455" x2="598" y1="277.4219" y2="277.4219"/><text fill="#000000" font-family="sans-serif" font-size="13" lengthAdjust="spacing" textLength="122" x="462" y="272.5654">getHighlightPolygons</text><line style="stroke:#181818;stroke-width:1.0;" x1="614" x2="656" y1="307.7734" y2="307.7734"/><line style="stroke:#181818;stroke-width:1.0;" x1="656" x2="656" y1="307.7734" y2="320.7734"/><line style="stroke:#181818;stroke-width:1.0;" x1="615" x2="656" y1="320.7734" y2="320.7734"/><polygon fill="#181818" points="625,316.7734,615,320.7734,625,324.7734,621,320.7734" style="stroke:#181818;stroke-width:1.0;"/><text fill="#000000" font-family="sans-serif" font-size="13" lengthAdjust="spacing" textLength="126" x="621" y="302.917">getWallPieceMapping</text><polygon fill="#181818" points="742,358.3008,752,362.3008,742,366.3008,746,362.3008" style="stroke:#181818;stroke-width:1.0;"/><line style="stroke:#181818;stroke-width:1.0;" x1="614" x2="748" y1="362.3008" y2="362.3008"/><text fill="#000000" font-family="sans-serif" font-size="13" lengthAdjust="spacing" textLength="61" x="621" y="357.4443">stepOrNull</text><path d="M769,333.7734 L769,375.7734 L871,375.7734 L871,343.7734 L861,333.7734 L769,333.7734 " fill="#FEFFDD" style="stroke:#181818;stroke-width:0.5;"/><path d="M861,333.7734 L861,343.7734 L871,343.7734 L861,333.7734 " fill="#FEFFDD" style="stroke:#181818;stroke-width:0.5;"/><text fill="#000000" font-family="sans-serif" font-size="13" lengthAdjust="spacing" textLength="60" x="775" y="352.2686">checks for</text><text fill="#000000" font-family="sans-serif" font-size="13" lengthAdjust="spacing" textLength="81" x="775" y="368.6201">each direction</text><polygon fill="#181818" points="625,399.8281,615,403.8281,625,407.8281,621,403.8281" style="stroke:#181818;stroke-width:1.0;"/><line style="stroke:#181818;stroke-width:1.0;stroke-dasharray:2.0,2.0;" x1="619" x2="758" y1="403.8281" y2="403.8281"/><text fill="#000000" font-family="sans-serif" font-size="13" lengthAdjust="spacing" textLength="47" x="631" y="398.9717">Position</text><polygon fill="#181818" points="466,430.1797,456,434.1797,466,438.1797,462,434.1797" style="stroke:#181818;stroke-width:1.0;"/><line style="stroke:#181818;stroke-width:1.0;stroke-dasharray:2.0,2.0;" x1="460" x2="608" y1="434.1797" y2="434.1797"/><text fill="#000000" font-family="sans-serif" font-size="13" lengthAdjust="spacing" textLength="84" x="472" y="429.3232">List&lt;Position&gt;</text><polygon fill="#181818" points="129,460.5313,119,464.5313,129,468.5313,125,464.5313" style="stroke:#181818;stroke-width:1.0;"/><line style="stroke:#181818;stroke-width:1.0;stroke-dasharray:2.0,2.0;" x1="123" x2="449" y1="464.5313" y2="464.5313"/><text fill="#000000" font-family="sans-serif" font-size="13" lengthAdjust="spacing" textLength="192" x="135" y="459.6748">List&lt;Position&gt; highlight polygons</text><line style="stroke:#000000;stroke-width:1.0;stroke-dasharray:2.0,2.0;" x1="62" x2="876" y1="473.5313" y2="473.5313"/><text fill="#000000" font-family="sans-serif" font-size="11" font-weight="bold" lengthAdjust="spacing" textLength="77" x="67" y="484.9502">[second click]</text><polygon fill="#181818" points="433,506.7188,443,510.7188,433,514.7188,437,510.7188" style="stroke:#181818;stroke-width:1.0;"/><line style="stroke:#181818;stroke-width:1.0;" x1="118" x2="439" y1="510.7188" y2="510.7188"/><text fill="#000000" font-family="sans-serif" font-size="13" lengthAdjust="spacing" textLength="30" x="125" y="505.8623">move</text><line style="stroke:#181818;stroke-width:1.0;" x1="455" x2="497" y1="541.0703" y2="541.0703"/><line style="stroke:#181818;stroke-width:1.0;" x1="497" x2="497" y1="541.0703" y2="554.0703"/><line style="stroke:#181818;stroke-width:1.0;" x1="456" x2="497" y1="554.0703" y2="554.0703"/><polygon fill="#181818" points="466,550.0703,456,554.0703,466,558.0703,462,554.0703" style="stroke:#181818;stroke-width:1.0;"/><text fill="#000000" font-family="sans-serif" font-size="13" lengthAdjust="spacing" textLength="71" x="462" y="536.2139">isLegalMove</text><polygon fill="#181818" points="592,580.4219,602,584.4219,592,588.4219,596,584.4219" style="stroke:#181818;stroke-width:1.0;"/><line style="stroke:#181818;stroke-width:1.0;" x1="455" x2="598" y1="584.4219" y2="584.4219"/><text fill="#000000" font-family="sans-serif" font-size="13" lengthAdjust="spacing" textLength="71" x="462" y="579.5654">isLegalMove</text><line style="stroke:#181818;stroke-width:1.0;" x1="614" x2="656" y1="614.7734" y2="614.7734"/><line style="stroke:#181818;stroke-width:1.0;" x1="656" x2="656" y1="614.7734" y2="627.7734"/><line style="stroke:#181818;stroke-width:1.0;" x1="615" x2="656" y1="627.7734" y2="627.7734"/><polygon fill="#181818" points="625,623.7734,615,627.7734,625,631.7734,621,627.7734" style="stroke:#181818;stroke-width:1.0;"/><text fill="#000000" font-family="sans-serif" font-size="13" lengthAdjust="spacing" textLength="126" x="621" y="609.917">getWallPieceMapping</text><line style="stroke:#181818;stroke-width:1.0;" x1="614" x2="656" y1="662.8008" y2="662.8008"/><line style="stroke:#181818;stroke-width:1.0;" x1="656" x2="656" y1="662.8008" y2="675.8008"/><line style="stroke:#181818;stroke-width:1.0;" x1="615" x2="656" y1="675.8008" y2="675.8008"/><polygon fill="#181818" points="625,671.8008,615,675.8008,625,679.8008,621,675.8008" style="stroke:#181818;stroke-width:1.0;"/><text fill="#000000" font-family="sans-serif" font-size="13" lengthAdjust="spacing" textLength="51" x="621" y="657.9443">canMove</text><path d="M684,640.7734 L684,682.7734 L786,682.7734 L786,650.7734 L776,640.7734 L684,640.7734 " fill="#FEFFDD" style="stroke:#181818;stroke-width:0.5;"/><path d="M776,640.7734 L776,650.7734 L786,650.7734 L776,640.7734 " fill="#FEFFDD" style="stroke:#181818;stroke-width:0.5;"/><text fill="#000000" font-family="sans-serif" font-size="13" lengthAdjust="spacing" textLength="60" x="690" y="659.2686">checks for</text><text fill="#000000" font-family="sans-serif" font-size="13" lengthAdjust="spacing" textLength="81" x="690" y="675.6201">each direction</text><polygon fill="#181818" points="466,706.8281,456,710.8281,466,714.8281,462,710.8281" style="stroke:#181818;stroke-width:1.0;"/><line style="stroke:#181818;stroke-width:1.0;stroke-dasharray:2.0,2.0;" x1="460" x2="608" y1="710.8281" y2="710.8281"/><text fill="#000000" font-family="sans-serif" font-size="13" lengthAdjust="spacing" textLength="90" x="472" y="705.9717">return true/false</text><line style="stroke:#181818;stroke-width:1.0;" x1="455" x2="502" y1="736.1797" y2="736.1797"/><line style="stroke:#181818;stroke-width:1.0;" x1="502" x2="502" y1="736.1797" y2="749.1797"/><line style="stroke:#181818;stroke-width:1.0;" x1="461" x2="502" y1="749.1797" y2="749.1797"/><polygon fill="#181818" points="471,745.1797,461,749.1797,471,753.1797,467,749.1797" style="stroke:#181818;stroke-width:1.0;"/><text fill="#000000" font-family="sans-serif" font-size="13" lengthAdjust="spacing" textLength="47" x="467" y="731.3232">isCheck</text><polygon fill="#181818" points="592,780.5313,602,784.5313,592,788.5313,596,784.5313" style="stroke:#181818;stroke-width:1.0;"/><line style="stroke:#181818;stroke-width:1.0;" x1="460" x2="598" y1="784.5313" y2="784.5313"/><text fill="#000000" font-family="sans-serif" font-size="13" lengthAdjust="spacing" textLength="122" x="467" y="779.6748">getHighlightPolygons</text><line style="stroke:#181818;stroke-width:1.0;" x1="614" x2="656" y1="814.8828" y2="814.8828"/><line style="stroke:#181818;stroke-width:1.0;" x1="656" x2="656" y1="814.8828" y2="827.8828"/><line style="stroke:#181818;stroke-width:1.0;" x1="615" x2="656" y1="827.8828" y2="827.8828"/><polygon fill="#181818" points="625,823.8828,615,827.8828,625,831.8828,621,827.8828" style="stroke:#181818;stroke-width:1.0;"/><text fill="#000000" font-family="sans-serif" font-size="13" lengthAdjust="spacing" textLength="126" x="621" y="810.0264">getWallPieceMapping</text><polygon fill="#181818" points="742,865.4102,752,869.4102,742,873.4102,746,869.4102" style="stroke:#181818;stroke-width:1.0;"/><line style="stroke:#181818;stroke-width:1.0;" x1="614" x2="748" y1="869.4102" y2="869.4102"/><text fill="#000000" font-family="sans-serif" font-size="13" lengthAdjust="spacing" textLength="61" x="621" y="864.5537">stepOrNull</text><path d="M769,840.8828 L769,882.8828 L871,882.8828 L871,850.8828 L861,840.8828 L769,840.8828 " fill="#FEFFDD" style="stroke:#181818;stroke-width:0.5;"/><path d="M861,840.8828 L861,850.8828 L871,850.8828 L861,840.8828 " fill="#FEFFDD" style="stroke:#181818;stroke-width:0.5;"/><text fill="#000000" font-family="sans-serif" font-size="13" lengthAdjust="spacing" textLength="60" x="775" y="859.3779">checks for</text><text fill="#000000" font-family="sans-serif" font-size="13" lengthAdjust="spacing" textLength="81" x="775" y="875.7295">each direction</text><polygon fill="#181818" points="625,926.2891,615,930.2891,625,934.2891,621,930.2891" style="stroke:#181818;stroke-width:1.0;"/><line style="stroke:#181818;stroke-width:1.0;stroke-dasharray:2.0,2.0;" x1="619" x2="758" y1="930.2891" y2="930.2891"/><text fill="#000000" font-family="sans-serif" font-size="13" lengthAdjust="spacing" textLength="47" x="631" y="925.4326">Position</text><path d="M474,893.5859 L474,952.5859 L599,952.5859 L599,903.5859 L589,893.5859 L474,893.5859 " fill="#FEFFDD" style="stroke:#181818;stroke-width:0.5;"/><path d="M589,893.5859 L589,903.5859 L599,903.5859 L589,893.5859 " fill="#FEFFDD" style="stroke:#181818;stroke-width:0.5;"/><text fill="#000000" font-family="sans-serif" font-size="13" lengthAdjust="spacing" textLength="80" x="480" y="912.0811">checks if king</text><text fill="#000000" font-family="sans-serif" font-size="13" lengthAdjust="spacing" textLength="71" x="480" y="928.4326">is present in</text><text fill="#000000" font-family="sans-serif" font-size="13" lengthAdjust="spacing" textLength="104" x="480" y="944.7842">highlight polygons</text><polygon fill="#181818" points="466,975.9922,456,979.9922,466,983.9922,462,979.9922" style="stroke:#181818;stroke-width:1.0;"/><line style="stroke:#181818;stroke-width:1.0;stroke-dasharray:2.0,2.0;" x1="460" x2="608" y1="979.9922" y2="979.9922"/><text fill="#000000" font-family="sans-serif" font-size="13" lengthAdjust="spacing" textLength="84" x="472" y="975.1357">List&lt;Position&gt;</text><line style="stroke:#181818;stroke-width:1.0;" x1="455" x2="497" y1="1015.0195" y2="1015.0195"/><line style="stroke:#181818;stroke-width:1.0;" x1="497" x2="497" y1="1015.0195" y2="1028.0195"/><line style="stroke:#181818;stroke-width:1.0;" x1="456" x2="497" y1="1028.0195" y2="1028.0195"/><polygon fill="#181818" points="466,1024.0195,456,1028.0195,466,1032.0195,462,1028.0195" style="stroke:#181818;stroke-width:1.0;"/><text fill="#000000" font-family="sans-serif" font-size="13" lengthAdjust="spacing" textLength="135" x="462" y="1010.1631">isCheckAfterLegalMove</text><path d="M609,992.9922 L609,1034.9922 L758,1034.9922 L758,1002.9922 L748,992.9922 L609,992.9922 " fill="#FEFFDD" style="stroke:#181818;stroke-width:0.5;"/><path d="M748,992.9922 L748,1002.9922 L758,1002.9922 L748,992.9922 " fill="#FEFFDD" style="stroke:#181818;stroke-width:0.5;"/><text fill="#000000" font-family="sans-serif" font-size="13" lengthAdjust="spacing" textLength="128" x="615" y="1011.4873">internally use isCheck</text><text fill="#000000" font-family="sans-serif" font-size="13" lengthAdjust="spacing" textLength="86" x="619" y="1027.8389">returns nothing</text><line style="stroke:#181818;stroke-width:1.0;" x1="455" x2="497" y1="1068.0469" y2="1068.0469"/><line style="stroke:#181818;stroke-width:1.0;" x1="497" x2="497" y1="1068.0469" y2="1081.0469"/><line style="stroke:#181818;stroke-width:1.0;" x1="450" x2="497" y1="1081.0469" y2="1081.0469"/><polygon fill="#181818" points="460,1077.0469,450,1081.0469,460,1085.0469,456,1081.0469" style="stroke:#181818;stroke-width:1.0;"/><text fill="#000000" font-family="sans-serif" font-size="13" lengthAdjust="spacing" textLength="76" x="462" y="1063.1904">isCheckMate</text><polygon fill="#181818" points="351,1109.3984,361,1113.3984,351,1117.3984,355,1113.3984" style="stroke:#181818;stroke-width:1.0;"/><line style="stroke:#181818;stroke-width:1.0;" x1="118" x2="357" y1="1113.3984" y2="1113.3984"/><text fill="#000000" font-family="sans-serif" font-size="13" lengthAdjust="spacing" textLength="221" x="125" y="1108.542">convertHighlightPolygonsToViewBoard</text><polygon fill="#181818" points="129,1139.75,119,1143.75,129,1147.75,125,1143.75" style="stroke:#181818;stroke-width:1.0;"/><line style="stroke:#181818;stroke-width:1.0;stroke-dasharray:2.0,2.0;" x1="123" x2="362" y1="1143.75" y2="1143.75"/><text fill="#000000" font-family="sans-serif" font-size="13" lengthAdjust="spacing" textLength="181" x="135" y="1138.8936">List&lt;String&gt; highlight Polygons</text><path d="M62,1158.75 L123,1158.75 L123,1167.1016 L113,1177.1016 L62,1177.1016 L62,1158.75 " fill="#EEEEEE" style="stroke:#000000;stroke-width:1.5;"/><rect fill="none" height="155.2422" style="stroke:#000000;stroke-width:1.5;" width="424" x="62" y="1158.75"/><text fill="#000000" font-family="sans-serif" font-size="13" font-weight="bold" lengthAdjust="spacing" textLength="16" x="77" y="1173.2451">alt</text><text fill="#000000" font-family="sans-serif" font-size="11" font-weight="bold" lengthAdjust="spacing" textLength="68" x="138" y="1172.1689">[Game over]</text><polygon fill="#181818" points="433,1195.4531,443,1199.4531,433,1203.4531,437,1199.4531" style="stroke:#181818;stroke-width:1.0;"/><line style="stroke:#181818;stroke-width:1.0;" x1="118" x2="439" y1="1199.4531" y2="1199.4531"/><text fill="#000000" font-family="sans-serif" font-size="13" lengthAdjust="spacing" textLength="71" x="125" y="1194.5967">isGameOver</text><polygon fill="#181818" points="129,1225.8047,119,1229.8047,129,1233.8047,125,1229.8047" style="stroke:#181818;stroke-width:1.0;"/><line style="stroke:#181818;stroke-width:1.0;stroke-dasharray:2.0,2.0;" x1="123" x2="449" y1="1229.8047" y2="1229.8047"/><text fill="#000000" font-family="sans-serif" font-size="13" lengthAdjust="spacing" textLength="72" x="135" y="1224.9482">game status</text><polygon fill="#181818" points="210.5,1256.1563,220.5,1260.1563,210.5,1264.1563,214.5,1260.1563" style="stroke:#181818;stroke-width:1.0;"/><line style="stroke:#181818;stroke-width:1.0;" x1="118" x2="216.5" y1="1260.1563" y2="1260.1563"/><text fill="#000000" font-family="sans-serif" font-size="13" lengthAdjust="spacing" textLength="79" x="125" y="1255.2998">setGameOver</text><line style="stroke:#000000;stroke-width:1.0;stroke-dasharray:2.0,2.0;" x1="62" x2="486" y1="1299.1563" y2="1299.1563"/><text fill="#000000" font-family="sans-serif" font-size="11" font-weight="bold" lengthAdjust="spacing" textLength="46" x="67" y="1310.5752">[Not yet]</text><polygon fill="#181818" points="11,1339.3438,1,1343.3438,11,1347.3438,7,1343.3438" style="stroke:#181818;stroke-width:1.0;"/><line style="stroke:#181818;stroke-width:1.0;stroke-dasharray:2.0,2.0;" x1="5" x2="107" y1="1343.3438" y2="1343.3438"/><text fill="#000000" font-family="sans-serif" font-size="13" lengthAdjust="spacing" textLength="89" x="17" y="1338.4873">click Response</text><!--MD5=[8619b0df576d8a11ded0b1c3bb600a55]
@startuml
participant GameMain
participant OnClickResponse
->GameMain: OnClick
activate GameMain
alt first click
GameMain->BoardAdapter: calculatePolygonID
activate BoardAdapter
BoardAdapter- ->GameMain: polygon position
deactivate BoardAdapter
GameMain->Board: isCurrentPlayersPiece
activate Board
Board- ->GameMain: return true/ false
deactivate Board
GameMain->Board: getPossibleMoves
activate Board
Board->BasePiece: getHighlightPolygons
activate BasePiece
BasePiece->BasePiece: getWallPieceMapping
BasePiece->MovementUtil: stepOrNull
note right: checks for \neach direction
activate MovementUtil
BasePiece<- -MovementUtil: Position
deactivate MovementUtil
Board<- -BasePiece: List<Position>
deactivate BasePiece
GameMain<- -Board: List<Position> highlight polygons
deactivate Board
else second click
GameMain->Board: move
activate Board
Board->Board: isLegalMove
Board->BasePiece: isLegalMove
activate BasePiece
BasePiece->BasePiece: getWallPieceMapping
BasePiece->BasePiece: canMove
note right: checks for \neach direction
Board<- -BasePiece: return true/false
deactivate BasePiece
Board->Board: isCheck
activate Board
Board->BasePiece: getHighlightPolygons
activate BasePiece
BasePiece->BasePiece: getWallPieceMapping
BasePiece->MovementUtil: stepOrNull
note right: checks for \neach direction
activate MovementUtil
BasePiece<- -MovementUtil: Position
deactivate MovementUtil
note left: checks if king \nis present in \nhighlight polygons
Board<- -BasePiece: List<Position>
deactivate Board
deactivate BasePiece
Board->Board: isCheckAfterLegalMove
note right: internally use isCheck\n returns nothing
Board->Board: isCheckMate
deactivate Board

end
GameMain->BoardAdapter: convertHighlightPolygonsToViewBoard
GameMain<- -BoardAdapter: List<String> highlight Polygons
alt Game over
GameMain->Board: isGameOver
activate Board
GameMain<- -Board: game status
deactivate Board
GameMain->OnClickResponse: setGameOver
activate OnClickResponse
deactivate OnClickResponse
else Not yet
end
<- -GameMain: click Response


@enduml

PlantUML version 1.2022.7(Mon Aug 22 19:01:30 CEST 2022)
(GPL source distribution)
Java Runtime: Java(TM) SE Runtime Environment
JVM: Java HotSpot(TM) Client VM
Default Encoding: Cp1252
Language: en
Country: US
--></g></svg>